<svg xmlns="http://www.w3.org/2000/svg" width="360" height="240" viewBox="0 0 360 240" role="img" aria-labelledby="title desc">
  <title id="title">Abstract AI companion illustration</title>
  <desc id="desc">Gradient backdrop with two overlapping chat silhouettes and sparkles.</desc>
  <defs>
    <linearGradient id="bg" x1="0" y1="0" x2="1" y2="1">
      <stop offset="0%" stop-color="#ff77d8" />
      <stop offset="50%" stop-color="#7f5fff" />
      <stop offset="100%" stop-color="#2cc3ff" />
    </linearGradient>
    <linearGradient id="orb" x1="0" y1="0" x2="1" y2="1">
      <stop offset="0%" stop-color="#ffe4ff" />
      <stop offset="100%" stop-color="#ffd1f5" />
    </linearGradient>
    <filter id="glow" x="-20%" y="-20%" width="140%" height="140%">
      <feGaussianBlur stdDeviation="12" result="blur" />
      <feBlend in="SourceGraphic" in2="blur" mode="screen" />
    </filter>
  </defs>
  <rect width="360" height="240" rx="24" fill="url(#bg)" />
  <circle cx="110" cy="120" r="72" fill="rgba(255,255,255,0.14)" />
  <circle cx="245" cy="112" r="84" fill="rgba(255,255,255,0.1)" />
  <g filter="url(#glow)">
    <path d="M128 154c-28 0-52-22-52-50s24-50 52-50 52 22 52 50-24 50-52 50zm0-72c-12 0-22 10-22 22s10 22 22 22 22-10 22-22-10-22-22-22z" fill="#ffffff" opacity="0.85" />
    <path d="M246 176c-30 0-56-24-56-54s26-54 56-54 56 24 56 54-26 54-56 54zm0-82c-15 0-28 12-28 28s13 28 28 28 28-12 28-28-13-28-28-28z" fill="#ffffff" opacity="0.75" />
  </g>
  <circle cx="300" cy="64" r="14" fill="url(#orb)" />
  <circle cx="78" cy="60" r="9" fill="url(#orb)" opacity="0.9" />
  <circle cx="314" cy="196" r="6" fill="#ffe4ff" opacity="0.7" />
  <circle cx="64" cy="190" r="7" fill="#ffe4ff" opacity="0.6" />
  <path d="M176 192c24 16 52 20 82 12" stroke="#ffe4ff" stroke-width="3" stroke-linecap="round" opacity="0.5" />
  <path d="M80 104c10-14 26-22 44-22" stroke="#ffe4ff" stroke-width="3" stroke-linecap="round" opacity="0.4" />
</svg>
